# xmcd
#
# Track frame offsets: 
#        150
#        24387
#        41948
#        60001
#        73476
#        97715
#        125586
#        153703
#        166352
#        191202
#        213114
#        232311
#        257924
#        275111
#
# Disc length: 3902 seconds
#
# Revision: 1
# Processed by: cddbd v1.5.2PL0 Copyright (c) Steve Scherf et al.
# Submitted via: ExactAudioCopy v1.0b3
#
DISCID=d30f3c0e
DTITLE=Tom Principato - Blues Over The Years
DYEAR=2003
DGENRE=Blues
TTITLE0=Never Make Your Move Too Soon
TTITLE1=I Know What You're Thinkin'
TTITLE2=Blue Mood
TTITLE3=Try To Reach You
TTITLE4=I Only Have Love
TTITLE5=Congo Square
TTITLE6=Blue Lights
TTITLE7=My Baby Worships Me
TTITLE8=Sweet Litle Thing
TTITLE9=Slipped, Tripped, Fell In Love
TTITLE10=Deep In The Hart Of Texas
TTITLE11=It All Went Down To The Drain
TTITLE12=Call The Law
TTITLE13=Goodbye For Now
EXTD=
EXTT0=
EXTT1=
EXTT2=
EXTT3=
EXTT4=
EXTT5=
EXTT6=
EXTT7=
EXTT8=
EXTT9=
EXTT10=
EXTT11=
EXTT12=
EXTT13=
PLAYORDER=
